#!OML:ASF F:\VICON\USERDATA\INSTALL\rory3\rory3.ASF
:FULLY-SPECIFIED
:DEGREES
314
root -0.133761 15.6627 8.11841 -6.63434 -5.3713 4.9202
lowerback 21.3568 2.00346 -5.0602
upperback 5.95608 1.35675 -2.29929
thorax -5.48327 0.680844 0.0589073
lowerneck -10.2982 -1.94347 -7.86996
upperneck 0.599586 -1.86185 6.03441
head 2.1883 -0.79263 3.32002
rclavicle -1.56046e-014 4.37326e-015
rhumerus -22.0954 -0.738918 -82.0102
rradius 21.5489
rwrist 14.8608
rhand -22.2486 -2.58368
rfingers 7.12502
rthumb 4.16873 -32.5226
lclavicle -1.56046e-014 4.37326e-015
lhumerus -28.1872 6.7579 78.344
lradius 20.4313
lwrist -6.33991
lhand -22.025 23.3478
lfingers 7.12502
lthumb 4.3846 53.2824
rfemur -34.515 1.31368 16.9056
rtibia 78.9919
rfoot -36.3025 -9.21465
rtoes -4.5454
lfemur -33.4551 9.22293 -22.5177
ltibia 75.6209
lfoot -31.1302 7.53114
ltoes -6.87969
315
root -0.127513 15.7764 8.15207 -6.65579 -5.49374 5.13783
lowerback 21.0945 1.93643 -5.17787
upperback 5.90276 1.25636 -2.37797
thorax -5.40186 0.632075 0.0723757
lowerneck -10.3444 -1.96775 -7.77792
upperneck 0.787166 -1.90712 6.0184
head 2.26139 -0.815994 3.29629
rclavicle -3.37934e-015 1.19271e-014
rhumerus -22.1693 -1.18104 -81.849
rradius 21.478
rwrist 14.9954
rhand -21.9067 -3.13747
rfingers 7.12502
rthumb 4.49882 -33.0697
lclavicle -3.37934e-015 1.19271e-014
lhumerus -28.4201 7.2972 78.2602
lradius 20.3531
lwrist -6.24479
lhand -22.0582 23.3632
lfingers 7.12502
lthumb 4.35257 53.2985
rfemur -33.6287 1.51255 16.595
rtibia 77.7071
rfoot -35.9948 -9.06163
rtoes -4.39715
lfemur -32.3961 9.08104 -22.8015
ltibia 74.1844
lfoot -30.9072 7.69373
ltoes -6.61141
316
root -0.121795 15.8911 8.18055 -6.55543 -5.5898 5.18882
lowerback 20.759 1.85409 -5.13895
upperback 5.81293 1.17651 -2.40756
thorax -5.32129 0.593108 0.0455615
lowerneck -10.2167 -2.00414 -7.72787
upperneck 0.812954 -1.97504 6.08938
head 2.25231 -0.849492 3.30742
rclavicle -2.60408e-014 3.37934e-014
rhumerus -22.3021 -1.46323 -81.691
rradius 21.4486
rwrist 14.9732
rhand -21.9126 -2.99168
rfingers 7.12502
rthumb 4.49317 -32.924
lclavicle -2.60408e-014 3.37934e-014
lhumerus -28.6107 7.83972 78.1601
lradius 20.1946
lwrist -6.55333
lhand -21.5911 23.9728
lfingers 7.12502
lthumb 4.80359 53.8983
rfemur -32.8573 1.67139 16.474
rtibia 76.4016
rfoot -35.7122 -8.72664
rtoes -3.58429
lfemur -31.5923 8.9058 -22.9166
ltibia 72.7791
lfoot -30.5021 7.96138
ltoes -6.65751
317
root -0.119975 15.995 8.20175 -6.36941 -5.73314 5.10518
lowerback 20.4201 1.77542 -5.07242
upperback 5.69438 1.10957 -2.3754
thorax -5.27097 0.560904 0.0652987
lowerneck -10.1197 -2.01929 -7.77549
upperneck 0.84573 -2.00566 6.28007
head 2.25335 -0.861198 3.382
rclavicle -4.17448e-015 -2.14687e-014
rhumerus -22.4062 -1.59999 -81.5495
rradius 21.3548
rwrist 14.8478
rhand -22.0954 -2.64562
rfingers 7.12502
rthumb 4.31669 -32.5816
lclavicle -4.17448e-015 -2.14687e-014
lhumerus -28.8004 8.57413 77.9462
lradius 20.0163
lwrist -7.6238
lhand -20.4767 24.8123
lfingers 7.12502
lthumb 5.87958 54.7108
rfemur -32.2462 1.90352 16.5073
rtibia 75.0913
rfoot -35.4602 -8.19466
rtoes -1.59385
lfemur -30.9612 8.81985 -22.8338
ltibia 71.4247
lfoot -30.0758 7.86989
ltoes -5.90808
318
root -0.12092 16.1083 8.22815 -6.26037 -5.88693 4.94037
lowerback 20.1668 1.71066 -4.97761
upperback 5.56716 1.06118 -2.31164
thorax -5.27494 0.538408 0.0957333
lowerneck -10.0675 -2.05788 -7.77644
upperneck 0.977098 -2.07158 6.42946
head 2.2969 -0.891381 3.43245
rclavicle -1.59028e-015 2.06736e-014
rhumerus -22.5984 -1.77406 -81.4049
rradius 21.2467
rwrist 14.6148
rhand -21.9805 -2.45287
rfingers 7.12502
rthumb 4.42757 -32.3866
lclavicle -1.59028e-015 2.06736e-014
lhumerus -29.0304 8.977 77.8225
lradius 19.7829
lwrist -8.3143
lhand -19.6673 25.1086
lfingers 7.12502
lthumb 6.66097 54.9838
rfemur -31.4357 2.18402 16.6549
rtibia 73.6562
rfoot -35.1368 -7.7468
rtoes 0.683288
lfemur -30.1901 8.76098 -22.6119
ltibia 70.0638
lfoot -29.7379 7.54491
ltoes -4.65562
319
root -0.120186 16.2309 8.25888 -6.10783 -6.01639 4.7625
lowerback 19.8329 1.60569 -4.78911
upperback 5.43079 0.981278 -2.28735
thorax -5.24316 0.49973 0.0398114
lowerneck -10.1303 -2.09668 -7.83646
upperneck 1.25685 -2.1305 6.63972
head 2.41463 -0.915693 3.51881
rclavicle -3.18055e-015 1.98785e-015
rhumerus -22.9 -1.75863 -81.3539
rradius 21.3246
rwrist 14.2642
rhand -22.1493 -2.55367
rfingers 7.12502
rthumb 4.26459 -32.4907
lclavicle -3.18055e-015 1.98785e-015
lhumerus -29.2498 8.99182 77.8394
lradius 19.4852
lwrist -8.13146
lhand -19.5992 24.9653
lfingers 7.12502
lthumb 6.72677 54.8384
rfemur -30.5987 2.35999 16.8606
rtibia 72.0983
rfoot -34.5594 -8.0416
rtoes -0.00756953
lfemur -29.443 8.69896 -22.4274
ltibia 68.6658
lfoot -29.2848 7.5902
ltoes -4.14653
320
root -0.11625 16.3485 8.28891 -5.88307 -6.12596 4.65253
lowerback 19.3793 1.48916 -4.61138
upperback 5.30668 0.889508 -2.29667
thorax -5.13405 0.454068 -0.0411703
lowerneck -10.1638 -2.14733 -7.87476
upperneck 1.45476 -2.2056 6.79746
head 2.49923 -0.949225 3.58061
rclavicle 1.28216e-014 1.98785e-014
rhumerus -23.1105 -1.79886 -81.3021
rradius 21.2922
rwrist 14.2417
rhand -22.3573 -2.68708
rfingers 7.12502
rthumb 4.06371 -32.6281
lclavicle 1.28216e-014 1.98785e-014
lhumerus -29.4926 9.01691 77.8686
lradius 19.2073
lwrist -8.00266
lhand -20.1779 24.571
lfingers 7.12502
lthumb 6.16807 54.4612
rfemur -29.8669 2.52873 16.9536
rtibia 70.5133
rfoot -33.9234 -8.19552
rtoes -0.968691
lfemur -28.7922 8.58911 -22.3695
ltibia 67.2336
lfoot -28.78 7.73149
ltoes -3.89041
